ffmpeg version 6.1.1-3ubuntu5 Copyright (c) 2000-2023 the FFmpeg developers
  built with gcc 13 (Ubuntu 13.2.0-23ubuntu3)
  configuration: --prefix=/usr --extra-version=3ubuntu5 --toolchain=hardened --libdir=/usr/lib/x86_64-linux-gnu --incdir=/usr/include/x86_64-linux-gnu --arch=amd64 --enable-gpl --disable-stripping --disable-omx --enable-gnutls --enable-libaom --enable-libass --enable-libbs2b --enable-libcaca --enable-libcdio --enable-libcodec2 --enable-libdav1d --enable-libflite --enable-libfontconfig --enable-libfreetype --enable-libfribidi --enable-libglslang --enable-libgme --enable-libgsm --enable-libharfbuzz --enable-libmp3lame --enable-libmysofa --enable-libopenjpeg --enable-libopenmpt --enable-libopus --enable-librubberband --enable-libshine --enable-libsnappy --enable-libsoxr --enable-libspeex --enable-libtheora --enable-libtwolame --enable-libvidstab --enable-libvorbis --enable-libvpx --enable-libwebp --enable-libx265 --enable-libxml2 --enable-libxvid --enable-libzimg --enable-openal --enable-opencl --enable-opengl --disable-sndio --enable-libvpl --disable-libmfx --enable-libdc1394 --enable-libdrm --enable-libiec61883 --enable-chromaprint --enable-frei0r --enable-ladspa --enable-libbluray --enable-libjack --enable-libpulse --enable-librabbitmq --enable-librist --enable-libsrt --enable-libssh --enable-libsvtav1 --enable-libx264 --enable-libzmq --enable-libzvbi --enable-lv2 --enable-sdl2 --enable-libplacebo --enable-librav1e --enable-pocketsphinx --enable-librsvg --enable-libjxl --enable-shared
  libavutil      58. 29.100 / 58. 29.100
  libavcodec     60. 31.102 / 60. 31.102
  libavformat    60. 16.100 / 60. 16.100
  libavdevice    60.  3.100 / 60.  3.100
  libavfilter     9. 12.100 /  9. 12.100
  libswscale      7.  5.100 /  7.  5.100
  libswresample   4. 12.100 /  4. 12.100
  libpostproc    57.  3.100 / 57.  3.100
[x11grab @ 0x561c2ce1e540] Stream #0: not enough frames to estimate rate; consider increasing probesize
Input #0, x11grab, from ':1':
  Duration: N/A, start: 1780912770.036934, bitrate: 884736 kb/s
  Stream #0:0: Video: rawvideo (BGR[0] / 0x524742), bgr0, 1280x720, 884736 kb/s, 30 fps, 1000k tbr, 1000k tbn
[aist#1:0/pcm_s16le @ 0x561c2ce2ed40] Guessed Channel Layout: stereo
Input #1, pulse, from 'psynet_rec.monitor':
  Duration: N/A, start: 1780912771.350523, bitrate: 1536 kb/s
  Stream #1:0: Audio: pcm_s16le, 48000 Hz, 2 channels, s16, 1536 kb/s
Stream mapping:
  Stream #0:0 -> #0:0 (rawvideo (native) -> h264 (libx264))
  Stream #1:0 -> #0:1 (pcm_s16le (native) -> aac (native))
Press [q] to stop, [?] for help
[libx264 @ 0x561c2ce30180] using cpu capabilities: MMX2 SSE2Fast SSSE3 SSE4.2 AVX FMA3 BMI2 AVX2 AVX512
[libx264 @ 0x561c2ce30180] profile High, level 3.1, 4:2:0, 8-bit
[libx264 @ 0x561c2ce30180] 264 - core 164 r3108 31e19f9 - H.264/MPEG-4 AVC codec - Copyleft 2003-2023 - http://www.videolan.org/x264.html - options: cabac=1 ref=3 deblock=1:0:0 analyse=0x3:0x113 me=hex subme=7 psy=1 psy_rd=1.00:0.00 mixed_ref=1 me_range=16 chroma_me=1 trellis=1 8x8dct=1 cqm=0 deadzone=21,11 fast_pskip=1 chroma_qp_offset=-2 threads=6 lookahead_threads=1 sliced_threads=0 nr=0 decimate=1 interlaced=0 bluray_compat=0 constrained_intra=0 bframes=3 b_pyramid=2 b_adapt=1 b_bias=0 direct=1 weightb=1 open_gop=0 weightp=2 keyint=250 keyint_min=25 scenecut=40 intra_refresh=0 rc_lookahead=40 rc=crf mbtree=1 crf=23.0 qcomp=0.60 qpmin=0 qpmax=69 qpstep=4 ip_ratio=1.40 aq=1:1.00
Output #0, mp4, to 'evidence/participant.mp4':
  Metadata:
    encoder         : Lavf60.16.100
  Stream #0:0: Video: h264 (avc1 / 0x31637661), yuv420p(tv, progressive), 1280x720, q=2-31, 30 fps, 15360 tbn
    Metadata:
      encoder         : Lavc60.31.102 libx264
    Side data:
      cpb: bitrate max/min/avg: 0/0/0 buffer size: 0 vbv_delay: N/A
  Stream #0:1: Audio: aac (LC) (mp4a / 0x6134706D), 48000 Hz, stereo, fltp, 128 kb/s
    Metadata:
      encoder         : Lavc60.31.102 aac
frame=    0 fps=0.0 q=0.0 size=       0kB time=N/A bitrate=N/A speed=N/A    [in#0/x11grab @ 0x561c2ce1e440] Thread message queue blocking; consider raising the thread_queue_size option (current value: 8)
frame=    0 fps=0.0 q=0.0 size=       0kB time=00:00:00.92 bitrate=   0.4kbits/s dup=59 drop=0 speed=1.69x    frame=    0 fps=0.0 q=0.0 size=       0kB time=00:00:01.72 bitrate=   0.2kbits/s dup=59 drop=0 speed=1.65x    frame=   13 fps=8.3 q=29.0 size=     256kB time=00:00:01.98 bitrate=1058.9kbits/s dup=59 drop=0 speed=1.27x    frame=   15 fps=7.3 q=29.0 size=     256kB time=00:00:02.75 bitrate= 762.3kbits/s dup=95 drop=5 speed=1.33x    frame=   15 fps=5.8 q=29.0 size=     256kB time=00:00:03.24 bitrate= 647.0kbits/s dup=95 drop=5 speed=1.26x    frame=   60 fps= 19 q=29.0 size=     256kB time=00:00:03.75 bitrate= 558.7kbits/s dup=130 drop=10 speed=1.22x    frame=   60 fps= 17 q=29.0 size=     256kB time=00:00:04.22 bitrate= 496.6kbits/s dup=130 drop=10 speed=1.17x    frame=   93 fps= 22 q=29.0 size=     256kB time=00:00:04.77 bitrate= 438.9kbits/s dup=135 drop=10 speed=1.14x    frame=  102 fps= 22 q=29.0 size=     256kB time=00:00:05.33 bitrate= 393.1kbits/s dup=166 drop=14 speed=1.13x    frame=  102 fps= 20 q=29.0 size=     256kB time=00:00:05.84 bitrate= 358.7kbits/s dup=166 drop=14 speed=1.12x    frame=  141 fps= 25 q=29.0 size=     256kB time=00:00:06.31 bitrate= 332.0kbits/s dup=171 drop=14 speed=1.11x    frame=  144 fps= 23 q=29.0 size=     256kB time=00:00:06.82 bitrate= 307.2kbits/s dup=201 drop=17 speed= 1.1x    frame=  144 fps= 21 q=29.0 size=     256kB time=00:00:07.33 bitrate= 285.8kbits/s dup=201 drop=17 speed=1.09x    frame=  186 fps= 26 q=29.0 size=     256kB time=00:00:07.85 bitrate= 267.2kbits/s dup=236 drop=20 speed=1.09x    frame=  186 fps= 24 q=29.0 size=     256kB time=00:00:08.36 bitrate= 250.8kbits/s dup=236 drop=20 speed=1.08x    frame=  186 fps= 23 q=29.0 size=     256kB time=00:00:08.87 bitrate= 236.4kbits/s dup=236 drop=20 speed=1.08x    frame=  228 fps= 26 q=29.0 size=     256kB time=00:00:09.38 bitrate= 223.5kbits/s dup=270 drop=23 speed=1.07x    frame=  228 fps= 25 q=29.0 size=     256kB time=00:00:09.89 bitrate= 211.9kbits/s dup=270 drop=23 speed=1.07x    frame=  261 fps= 27 q=29.0 size=     256kB time=00:00:10.40 bitrate= 201.5kbits/s dup=275 drop=23 speed=1.07x    frame=  269 fps= 26 q=29.0 size=     256kB time=00:00:10.92 bitrate= 192.0kbits/s dup=304 drop=25 speed=1.06x    frame=  269 fps= 25 q=29.0 size=     256kB time=00:00:11.39 bitrate= 184.1kbits/s dup=304 drop=25 speed=1.06x    frame=  309 fps= 27 q=29.0 size=     256kB time=00:00:11.86 bitrate= 176.8kbits/s dup=309 drop=25 speed=1.05x    frame=  311 fps= 26 q=29.0 size=     256kB time=00:00:12.41 bitrate= 169.0kbits/s dup=339 drop=28 speed=1.05x    frame=  311 fps= 25 q=29.0 size=     256kB time=00:00:12.92 bitrate= 162.3kbits/s dup=339 drop=28 speed=1.05x    frame=  353 fps= 28 q=29.0 size=     256kB time=00:00:13.41 bitrate= 156.3kbits/s dup=374 drop=31 speed=1.05x    frame=  353 fps= 27 q=29.0 size=     256kB time=00:00:13.92 bitrate= 150.6kbits/s dup=374 drop=31 speed=1.05x    frame=  353 fps= 26 q=29.0 size=     256kB time=00:00:14.44 bitrate= 145.2kbits/s dup=374 drop=31 speed=1.04x    frame=  395 fps= 28 q=29.0 size=     512kB time=00:00:14.95 bitrate= 280.5kbits/s dup=409 drop=34 speed=1.04x    frame=  395 fps= 27 q=29.0 size=     512kB time=00:00:15.46 bitrate= 271.2kbits/s dup=409 drop=34 speed=1.04x    frame=  429 fps= 28 q=29.0 size=     512kB time=00:00:15.99 bitrate= 262.2kbits/s dup=413 drop=34 speed=1.04x    frame=  437 fps= 28 q=29.0 size=     512kB time=00:00:16.44 bitrate= 255.0kbits/s dup=444 drop=37 speed=1.04x    frame=  437 fps= 27 q=29.0 size=     512kB time=00:00:16.98 bitrate= 247.0kbits/s dup=444 drop=37 speed=1.04x    frame=  476 fps= 28 q=29.0 size=     512kB time=00:00:17.43 bitrate= 240.7kbits/s dup=449 drop=37 speed=1.03x    frame=  479 fps= 28 q=29.0 size=     512kB time=00:00:17.98 bitrate= 233.2kbits/s dup=479 drop=40 speed=1.04x    frame=  479 fps= 27 q=29.0 size=     512kB time=00:00:18.49 bitrate= 226.8kbits/s dup=479 drop=40 speed=1.03x    frame=  521 fps= 28 q=29.0 size=     512kB time=00:00:19.00 bitrate= 220.7kbits/s dup=514 drop=43 speed=1.03x    frame=  521 fps= 28 q=29.0 size=     512kB time=00:00:19.51 bitrate= 214.9kbits/s dup=514 drop=43 speed=1.03x    frame=  521 fps= 27 q=29.0 size=     512kB time=00:00:20.03 bitrate= 209.4kbits/s dup=514 drop=43 speed=1.03x    frame=  563 fps= 28 q=29.0 size=     512kB time=00:00:20.54 bitrate= 204.2kbits/s dup=548 drop=46 speed=1.03x    frame=  563 fps= 28 q=29.0 size=     512kB time=00:00:21.05 bitrate= 199.2kbits/s dup=548 drop=46 speed=1.03x    frame=  596 fps= 28 q=29.0 size=     512kB time=00:00:21.56 bitrate= 194.5kbits/s dup=553 drop=46 speed=1.03x    frame=  604 fps= 28 q=29.0 size=     512kB time=00:00:22.03 bitrate= 190.4kbits/s dup=583 drop=49 speed=1.03x    frame=  604 fps= 28 q=29.0 size=     512kB time=00:00:22.54 bitrate= 186.0kbits/s dup=583 drop=49 speed=1.03x    frame=  643 fps= 29 q=29.0 size=     512kB time=00:00:22.99 bitrate= 182.4kbits/s dup=588 drop=49 speed=1.03x    frame=  646 fps= 28 q=29.0 size=     512kB time=00:00:23.57 bitrate= 178.0kbits/s dup=618 drop=52 speed=1.03x    frame=  646 fps= 28 q=29.0 size=     512kB time=00:00:24.08 bitrate= 174.2kbits/s dup=618 drop=52 speed=1.03x    frame=  688 fps= 29 q=29.0 size=     512kB time=00:00:24.57 bitrate= 170.7kbits/s dup=652 drop=55 speed=1.03x    frame=  688 fps= 28 q=29.0 size=     512kB time=00:00:25.08 bitrate= 167.2kbits/s dup=652 drop=55 speed=1.03x    frame=  688 fps= 28 q=29.0 size=     512kB time=00:00:25.59 bitrate= 163.9kbits/s dup=652 drop=55 speed=1.03x    frame=  730 fps= 29 q=29.0 size=     512kB time=00:00:26.10 bitrate= 160.7kbits/s dup=686 drop=57 speed=1.03x    frame=  730 fps= 28 q=29.0 size=     512kB time=00:00:26.57 bitrate= 157.8kbits/s dup=686 drop=57 speed=1.02x    frame=  763 fps= 29 q=29.0 size=     512kB time=00:00:27.09 bitrate= 154.8kbits/s dup=691 drop=57 speed=1.02x    frame=  772 fps= 29 q=29.0 size=     512kB time=00:00:27.60 bitrate= 152.0kbits/s dup=721 drop=60 speed=1.02x    frame=  772 fps= 28 q=29.0 size=     512kB time=00:00:28.11 bitrate= 149.2kbits/s dup=721 drop=60 speed=1.02x    frame=  811 fps= 29 q=29.0 size=     512kB time=00:00:28.58 bitrate= 146.7kbits/s dup=726 drop=60 speed=1.02x    frame=  813 fps= 29 q=29.0 size=     512kB time=00:00:29.13 bitrate= 144.0kbits/s dup=756 drop=63 speed=1.02x    frame=  813 fps= 28 q=29.0 size=     512kB time=00:00:29.65 bitrate= 141.5kbits/s dup=756 drop=63 speed=1.02x    frame=  855 fps= 29 q=29.0 size=     512kB time=00:00:30.11 bitrate= 139.3kbits/s dup=791 drop=66 speed=1.02x    frame=  855 fps= 28 q=29.0 size=     512kB time=00:00:30.63 bitrate= 136.9kbits/s dup=791 drop=66 speed=1.02x    frame=  855 fps= 28 q=29.0 size=     512kB time=00:00:31.14 bitrate= 134.7kbits/s dup=791 drop=66 speed=1.02x    frame=  897 fps= 29 q=29.0 size=     512kB time=00:00:31.69 bitrate= 132.3kbits/s dup=826 drop=69 speed=1.02x    frame=  897 fps= 28 q=29.0 size=     512kB time=00:00:32.21 bitrate= 130.2kbits/s dup=826 drop=69 speed=1.02x    frame=  930 fps= 29 q=29.0 size=     512kB time=00:00:32.74 bitrate= 128.1kbits/s dup=830 drop=69 speed=1.02x    frame=  937 fps= 29 q=29.0 size=     512kB time=00:00:33.25 bitrate= 126.1kbits/s dup=859 drop=73 speed=1.02x    [out#0/mp4 @ 0x561c2ce2e9c0] video:921kB audio:108kB subtitle:0kB other streams:0kB global headers:0kB muxing overhead: 4.276480%
frame= 1005 fps= 31 q=-1.0 Lsize=    1073kB time=00:00:33.51 bitrate= 262.2kbits/s dup=859 drop=73 speed=1.02x    
[libx264 @ 0x561c2ce30180] frame I:6     Avg QP:13.55  size:128226
[libx264 @ 0x561c2ce30180] frame P:253   Avg QP:22.72  size:   452
[libx264 @ 0x561c2ce30180] frame B:746   Avg QP:30.80  size:    78
[libx264 @ 0x561c2ce30180] consecutive B-frames:  1.0%  0.0%  0.3% 98.7%
[libx264 @ 0x561c2ce30180] mb I  I16..4: 54.3% 18.2% 27.5%
[libx264 @ 0x561c2ce30180] mb P  I16..4:  1.8%  0.4%  0.1%  P16..4:  0.6%  0.0%  0.0%  0.0%  0.0%    skip:97.1%
[libx264 @ 0x561c2ce30180] mb B  I16..4:  0.5%  0.0%  0.0%  B16..8:  0.5%  0.0%  0.0%  direct: 0.0%  skip:99.0%  L0:52.9% L1:47.1% BI: 0.0%
[libx264 @ 0x561c2ce30180] 8x8 transform intra:15.1% inter:47.8%
[libx264 @ 0x561c2ce30180] coded y,uvDC,uvAC intra: 15.5% 19.1% 14.3% inter: 0.0% 0.2% 0.0%
[libx264 @ 0x561c2ce30180] i16 v,h,dc,p: 36% 64%  0%  0%
[libx264 @ 0x561c2ce30180] i8 v,h,dc,ddl,ddr,vr,hd,vl,hu: 13% 13% 62%  1%  1%  1%  7%  1%  1%
[libx264 @ 0x561c2ce30180] i4 v,h,dc,ddl,ddr,vr,hd,vl,hu: 13% 20% 18%  4%  5%  4% 28%  3%  6%
[libx264 @ 0x561c2ce30180] i8c dc,h,v,p: 43% 52%  4%  1%
[libx264 @ 0x561c2ce30180] Weighted P-Frames: Y:0.0% UV:0.0%
[libx264 @ 0x561c2ce30180] ref P L0: 82.3%  7.1%  8.3%  2.3%
[libx264 @ 0x561c2ce30180] ref B L0: 64.8% 33.4%  1.8%
[libx264 @ 0x561c2ce30180] ref B L1: 96.0%  4.0%
[libx264 @ 0x561c2ce30180] kb/s:224.94
[aac @ 0x561c2ce35c40] Qavg: 56480.703
Exiting normally, received signal 2.
